#!OML:ASF H:\ManfredETheater\Project 1\Capture day 1\Session 1\subject.ASF
:FULLY-SPECIFIED
:DEGREES
216
root -10.1588 16.7562 -37.7207 -157.294 -18.7843 -176.566
lowerback 19.1282 -0.117576 4.98093
upperback -0.408098 1.1308 4.48436
thorax -11.2412 0.256121 1.83305
lowerneck -16.5829 2.9653 -0.834711
upperneck -4.88606 3.22219 -7.497
head 1.38668 0.990455 -2.09287
rclavicle 7.71285e-014 2.38542e-014
rhumerus -37.0729 6.16856 -90.6906
rradius 86.6014
rwrist -13.4549
rhand -24.1376 3.81808
rfingers 7.12502
rthumb 2.34451 -26.1488
lclavicle 7.71285e-014 2.38542e-014
lhumerus -49.6068 -13.5228 97.919
lradius 71.0469
lwrist 12.7823
lhand -24.8491 -17.7691
lfingers 7.12502
lthumb 1.65726 12.2042
rfemur -34.297 1.22833 24.9359
rtibia 52.4319
rfoot -31.0824 -11.8481
rtoes -35.9067
lfemur -44.7926 5.82295 -15.917
ltibia 93.0323
lfoot -1.24705 -10.747
ltoes -3.67318
217
root -10.3417 16.7196 -38.1219 -157.152 -18.8937 -176.427
lowerback 18.7575 -0.0296765 5.1298
upperback -0.637623 1.27794 4.42301
thorax -11.2848 0.319888 1.63966
lowerneck -16.7395 2.9057 -0.688389
upperneck -4.77874 3.13653 -7.38213
head 1.44754 0.947812 -2.0865
rclavicle 1.39149e-014 -6.99722e-014
rhumerus -36.9278 8.69334 -91.8422
rradius 91.0813
rwrist -12.664
rhand -23.2979 4.56614
rfingers 7.12502
rthumb 3.1554 -25.3903
lclavicle 1.39149e-014 -6.99722e-014
lhumerus -53.6637 -14.4772 98.3883
lradius 73.5882
lwrist 12.5485
lhand -24.4389 -18.0192
lfingers 7.12502
lthumb 2.05347 11.9507
rfemur -31.9617 1.30294 24.9086
rtibia 50.9506
rfoot -31.7913 -12.3514
rtoes -36.5208
lfemur -48.2674 6.40232 -15.5842
ltibia 94.5341
lfoot -2.91878 -10.2214
ltoes -4.85942
218
root -10.5291 16.693 -38.5348 -157.047 -19.122 -176.326
lowerback 18.3464 0.063194 5.32558
upperback -0.881888 1.43665 4.32724
thorax -11.3176 0.385405 1.37955
lowerneck -16.872 2.76381 -0.577351
upperneck -4.63031 2.95472 -7.19306
head 1.51192 0.863193 -2.05571
rclavicle -1.03368e-014 3.65764e-014
rhumerus -37.0434 11.163 -92.8154
rradius 95.7641
rwrist -11.618
rhand -22.6032 5.34719
rfingers 7.12502
rthumb 3.82626 -24.5982
lclavicle -1.03368e-014 3.65764e-014
lhumerus -57.8706 -15.4966 98.9533
lradius 76.4812
lwrist 12.5415
lhand -23.9589 -18.2267
lfingers 7.12502
lthumb 2.51709 11.7382
rfemur -29.3869 1.42102 24.8669
rtibia 49.1514
rfoot -32.186 -12.8038
rtoes -37.2043
lfemur -51.6275 6.84305 -15.3073
ltibia 95.528
lfoot -4.41668 -9.80877
ltoes -5.72933
219
root -10.7216 16.6778 -38.96 -156.998 -19.4247 -176.257
lowerback 17.925 0.176791 5.54723
upperback -1.1362 1.62427 4.1955
thorax -11.351 0.461399 1.059
lowerneck -16.976 2.53952 -0.506753
upperneck -4.4404 2.67736 -6.93716
head 1.57974 0.736872 -2.00221
rclavicle 5.64548e-014 3.97569e-015
rhumerus -37.3656 13.5342 -93.6099
rradius 100.542
rwrist -10.3829
rhand -22.0915 6.12912
rfingers 7.12502
rthumb 4.32044 -23.8068
lclavicle 5.64548e-014 3.97569e-015
lhumerus -62.1344 -16.4553 99.5437
lradius 79.5631
lwrist 12.8881
lhand -23.366 -18.3863
lfingers 7.12502
lthumb 3.08964 11.571
rfemur -26.5618 1.60059 24.8146
rtibia 47.036
rfoot -32.1841 -13.1656
rtoes -38.0147
lfemur -54.7972 7.16218 -15.0978
ltibia 95.9862
lfoot -5.78456 -9.55307
ltoes -6.531
220
root -10.9202 16.6748 -39.3974 -156.975 -19.7815 -176.251
lowerback 17.4816 0.312143 5.75753
upperback -1.398 1.83296 4.02421
thorax -11.375 0.546742 0.697663
lowerneck -17.062 2.24458 -0.472318
upperneck -4.21476 2.31755 -6.63613
head 1.65271 0.573743 -1.93335
rclavicle -1.78906e-014 1.66979e-014
rhumerus -37.8412 15.773 -94.2448
rradius 105.33
rwrist -9.1019
rhand -21.7511 6.93022
rfingers 7.12502
rthumb 4.64909 -22.9988
lclavicle -1.78906e-014 1.66979e-014
lhumerus -66.3505 -17.2748 100.088
lradius 82.6931
lwrist 13.6286
lhand -22.6573 -18.4761
lfingers 7.12502
lthumb 3.77406 11.4702
rfemur -23.5311 1.82279 24.7246
rtibia 44.6249
rfoot -31.7307 -13.3738
rtoes -38.9587
lfemur -57.7568 7.3379 -14.9926
ltibia 95.8957
lfoot -7.00617 -9.44758
ltoes -7.27693
221
root -11.1257 16.6833 -39.846 -156.974 -20.1705 -176.307
lowerback 17.0254 0.4676 5.93305
upperback -1.66043 2.0562 3.82467
thorax -11.3878 0.639956 0.323595
lowerneck -17.1508 1.89609 -0.471784
upperneck -3.95335 1.89634 -6.31089
head 1.73652 0.382271 -1.85538
rclavicle -5.80451e-014 -6.04305e-014
rhumerus -38.4285 17.8724 -94.735
rradius 110.057
rwrist -7.86597
rhand -21.5212 7.74034
rfingers 7.12502
rthumb 4.87106 -22.1837
lclavicle -5.80451e-014 -6.04305e-014
lhumerus -70.4242 -17.902 100.526
lradius 85.764
lwrist 14.7002
lhand -21.8527 -18.4288
lfingers 7.12502
lthumb 4.55098 11.5023
rfemur -20.3335 2.05605 24.596
rtibia 41.9555
rfoot -30.7753 -13.3489
rtoes -40.0381
lfemur -60.4742 7.37251 -14.995
ltibia 95.2671
lfoot -8.09121 -9.51594
ltoes -7.84719
